<mxfile host="app.diagrams.net" agent="Mozilla/5.0 (Windows NT 10.0; Win64; x64) AppleWebKit/537.36 (KHTML, like Gecko) Chrome/141.0.0.0 Safari/537.36" version="28.2.7">
  <diagram name="Страница — 1" id="vG2XwD0_kQq9nvnEKlRD">
    <mxGraphModel dx="952" dy="502" grid="1" gridSize="10" guides="1" tooltips="1" connect="1" arrows="1" fold="1" page="1" pageScale="1" pageWidth="827" pageHeight="1169" math="0" shadow="0">
      <root>
        <mxCell id="0" />
        <mxCell id="1" parent="0" />
        <mxCell id="MkMtsA1eXXmwj3eEG_Ds-1" value="Начало" style="rounded=1;whiteSpace=wrap;html=1;" parent="1" vertex="1">
          <mxGeometry x="354" y="60" width="120" height="60" as="geometry" />
        </mxCell>
        <mxCell id="MkMtsA1eXXmwj3eEG_Ds-6" style="edgeStyle=orthogonalEdgeStyle;rounded=0;orthogonalLoop=1;jettySize=auto;html=1;exitX=0.5;exitY=1;exitDx=0;exitDy=0;entryX=0.5;entryY=0;entryDx=0;entryDy=0;" parent="1" source="MkMtsA1eXXmwj3eEG_Ds-2" target="MkMtsA1eXXmwj3eEG_Ds-4" edge="1">
          <mxGeometry relative="1" as="geometry" />
        </mxCell>
        <mxCell id="MkMtsA1eXXmwj3eEG_Ds-2" value="Моргание &lt;font style=&quot;color: rgb(204, 204, 0);&quot;&gt;жёлтым &lt;/font&gt;и&amp;nbsp;&lt;span style=&quot;color: rgb(0, 153, 0);&quot;&gt;зелёным&lt;/span&gt;&lt;div&gt;светодиодом&lt;/div&gt;" style="rounded=1;whiteSpace=wrap;html=1;" parent="1" vertex="1">
          <mxGeometry x="354" y="150" width="120" height="60" as="geometry" />
        </mxCell>
        <mxCell id="MkMtsA1eXXmwj3eEG_Ds-3" value="Конец" style="rounded=1;whiteSpace=wrap;html=1;" parent="1" vertex="1">
          <mxGeometry x="550" y="250" width="120" height="60" as="geometry" />
        </mxCell>
        <mxCell id="MkMtsA1eXXmwj3eEG_Ds-7" style="edgeStyle=orthogonalEdgeStyle;rounded=0;orthogonalLoop=1;jettySize=auto;html=1;exitX=1;exitY=0.5;exitDx=0;exitDy=0;entryX=0;entryY=0.5;entryDx=0;entryDy=0;" parent="1" source="MkMtsA1eXXmwj3eEG_Ds-4" target="MkMtsA1eXXmwj3eEG_Ds-3" edge="1">
          <mxGeometry relative="1" as="geometry" />
        </mxCell>
        <mxCell id="MkMtsA1eXXmwj3eEG_Ds-8" value="NO" style="edgeLabel;html=1;align=center;verticalAlign=middle;resizable=0;points=[];" parent="MkMtsA1eXXmwj3eEG_Ds-7" vertex="1" connectable="0">
          <mxGeometry x="-0.1213" y="2" relative="1" as="geometry">
            <mxPoint as="offset" />
          </mxGeometry>
        </mxCell>
        <mxCell id="MkMtsA1eXXmwj3eEG_Ds-13" style="edgeStyle=orthogonalEdgeStyle;rounded=0;orthogonalLoop=1;jettySize=auto;html=1;exitX=0.5;exitY=1;exitDx=0;exitDy=0;entryX=0.5;entryY=0;entryDx=0;entryDy=0;" parent="1" source="MkMtsA1eXXmwj3eEG_Ds-4" target="MkMtsA1eXXmwj3eEG_Ds-9" edge="1">
          <mxGeometry relative="1" as="geometry" />
        </mxCell>
        <mxCell id="MkMtsA1eXXmwj3eEG_Ds-14" value="YES" style="edgeLabel;html=1;align=center;verticalAlign=middle;resizable=0;points=[];" parent="MkMtsA1eXXmwj3eEG_Ds-13" vertex="1" connectable="0">
          <mxGeometry x="-0.18" relative="1" as="geometry">
            <mxPoint as="offset" />
          </mxGeometry>
        </mxCell>
        <mxCell id="MkMtsA1eXXmwj3eEG_Ds-4" value="abs(overflow_level) &amp;gt; i ?" style="rhombus;whiteSpace=wrap;html=1;fontSize=10;" parent="1" vertex="1">
          <mxGeometry x="339" y="240" width="150" height="80" as="geometry" />
        </mxCell>
        <mxCell id="MkMtsA1eXXmwj3eEG_Ds-5" value="" style="endArrow=classic;html=1;rounded=0;exitX=0.5;exitY=1;exitDx=0;exitDy=0;entryX=0.5;entryY=0;entryDx=0;entryDy=0;" parent="1" source="MkMtsA1eXXmwj3eEG_Ds-1" target="MkMtsA1eXXmwj3eEG_Ds-2" edge="1">
          <mxGeometry width="50" height="50" relative="1" as="geometry">
            <mxPoint x="390" y="290" as="sourcePoint" />
            <mxPoint x="440" y="240" as="targetPoint" />
          </mxGeometry>
        </mxCell>
        <mxCell id="MkMtsA1eXXmwj3eEG_Ds-15" style="edgeStyle=orthogonalEdgeStyle;rounded=0;orthogonalLoop=1;jettySize=auto;html=1;exitX=0.5;exitY=1;exitDx=0;exitDy=0;entryX=0.5;entryY=0;entryDx=0;entryDy=0;" parent="1" source="MkMtsA1eXXmwj3eEG_Ds-9" target="MkMtsA1eXXmwj3eEG_Ds-10" edge="1">
          <mxGeometry relative="1" as="geometry" />
        </mxCell>
        <mxCell id="MkMtsA1eXXmwj3eEG_Ds-9" value="i++" style="rounded=1;whiteSpace=wrap;html=1;" parent="1" vertex="1">
          <mxGeometry x="354" y="360" width="120" height="60" as="geometry" />
        </mxCell>
        <mxCell id="MkMtsA1eXXmwj3eEG_Ds-16" style="edgeStyle=orthogonalEdgeStyle;rounded=0;orthogonalLoop=1;jettySize=auto;html=1;exitX=1;exitY=0.5;exitDx=0;exitDy=0;entryX=0;entryY=0.5;entryDx=0;entryDy=0;" parent="1" source="MkMtsA1eXXmwj3eEG_Ds-10" target="MkMtsA1eXXmwj3eEG_Ds-11" edge="1">
          <mxGeometry relative="1" as="geometry" />
        </mxCell>
        <mxCell id="MkMtsA1eXXmwj3eEG_Ds-17" value="YES" style="edgeLabel;html=1;align=center;verticalAlign=middle;resizable=0;points=[];" parent="MkMtsA1eXXmwj3eEG_Ds-16" vertex="1" connectable="0">
          <mxGeometry x="-0.0557" y="1" relative="1" as="geometry">
            <mxPoint as="offset" />
          </mxGeometry>
        </mxCell>
        <mxCell id="MkMtsA1eXXmwj3eEG_Ds-18" style="edgeStyle=orthogonalEdgeStyle;rounded=0;orthogonalLoop=1;jettySize=auto;html=1;exitX=0.5;exitY=1;exitDx=0;exitDy=0;entryX=0.5;entryY=0;entryDx=0;entryDy=0;" parent="1" source="MkMtsA1eXXmwj3eEG_Ds-10" target="MkMtsA1eXXmwj3eEG_Ds-12" edge="1">
          <mxGeometry relative="1" as="geometry" />
        </mxCell>
        <mxCell id="MkMtsA1eXXmwj3eEG_Ds-19" value="NO" style="edgeLabel;html=1;align=center;verticalAlign=middle;resizable=0;points=[];" parent="MkMtsA1eXXmwj3eEG_Ds-18" vertex="1" connectable="0">
          <mxGeometry x="-0.1281" y="2" relative="1" as="geometry">
            <mxPoint as="offset" />
          </mxGeometry>
        </mxCell>
        <mxCell id="MkMtsA1eXXmwj3eEG_Ds-10" value="overflow_level &amp;gt; 0 ?" style="rhombus;whiteSpace=wrap;html=1;fontSize=10;" parent="1" vertex="1">
          <mxGeometry x="339" y="460" width="150" height="80" as="geometry" />
        </mxCell>
        <mxCell id="MkMtsA1eXXmwj3eEG_Ds-11" value="Моргание &lt;font style=&quot;color: rgb(0, 153, 0);&quot;&gt;зелёным &lt;/font&gt;светодиодом" style="rounded=1;whiteSpace=wrap;html=1;" parent="1" vertex="1">
          <mxGeometry x="550" y="470" width="120" height="60" as="geometry" />
        </mxCell>
        <mxCell id="MkMtsA1eXXmwj3eEG_Ds-12" value="Моргание &lt;font style=&quot;color: rgb(255, 0, 0);&quot;&gt;красным &lt;/font&gt;светодиодом" style="rounded=1;whiteSpace=wrap;html=1;" parent="1" vertex="1">
          <mxGeometry x="354" y="584.5" width="120" height="60" as="geometry" />
        </mxCell>
        <mxCell id="MkMtsA1eXXmwj3eEG_Ds-21" value="" style="endArrow=classic;html=1;rounded=0;exitX=0.5;exitY=1;exitDx=0;exitDy=0;entryX=0;entryY=0.5;entryDx=0;entryDy=0;" parent="1" source="MkMtsA1eXXmwj3eEG_Ds-11" target="MkMtsA1eXXmwj3eEG_Ds-4" edge="1">
          <mxGeometry width="50" height="50" relative="1" as="geometry">
            <mxPoint x="390" y="470" as="sourcePoint" />
            <mxPoint x="270" y="230" as="targetPoint" />
            <Array as="points">
              <mxPoint x="610" y="682" />
              <mxPoint x="240" y="680" />
              <mxPoint x="240" y="280" />
            </Array>
          </mxGeometry>
        </mxCell>
        <mxCell id="MkMtsA1eXXmwj3eEG_Ds-22" value="" style="endArrow=none;html=1;rounded=0;exitX=0;exitY=0.5;exitDx=0;exitDy=0;" parent="1" source="MkMtsA1eXXmwj3eEG_Ds-12" edge="1">
          <mxGeometry width="50" height="50" relative="1" as="geometry">
            <mxPoint x="360" y="450" as="sourcePoint" />
            <mxPoint x="240" y="615" as="targetPoint" />
          </mxGeometry>
        </mxCell>
      </root>
    </mxGraphModel>
  </diagram>
</mxfile>
